<?xml version="1.0" encoding="utf-8"?>
<!-- Generator: Adobe Illustrator 27.5.0, SVG Export Plug-In . SVG Version: 6.00 Build 0)  -->
<svg version="1.1" xmlns="http://www.w3.org/2000/svg" xmlns:xlink="http://www.w3.org/1999/xlink" x="0px" y="0px"
	 viewBox="0 0 2200 1466" style="enable-background:new 0 0 2200 1466;" xml:space="preserve">
<g id="background">
	<rect style="fill:#FFFFFF;" width="2200" height="1466"/>
</g>
<g id="Objects">
	<g>
		<path d="M1831.232,675.62c-22.59-14.137-57.368-16.179-79.884,0c-22.526,16.186-45.675,31.095-69.419,44.574
			c-5.632,3.197-11.295,6.315-16.988,9.355c-2.219,1.185-4.447,2.344-6.673,3.509c-1.06,0.533-2.208,1.11-2.76,1.383
			c-11.937,5.898-23.992,11.452-36.151,16.663c-24.74,10.603-49.908,19.783-75.387,27.495c-1.635,0.495-3.274,0.969-4.912,1.451
			c4.167-1.183,0.123,0.078-2.391,0.745c-0.372,0.099-0.745,0.193-1.116,0.292c-0.222,0.064-0.442,0.132-0.664,0.196
			c-1.299,0.375-2.602,0.733-3.9,1.114c1.419-0.417,2.65-0.778,3.719-1.09c-5.872,1.551-11.75,3.069-17.647,4.482
			c-12.668,3.035-25.396,5.715-38.169,8.034c-13.213,2.399-26.475,4.412-39.771,6.036c-5.68,0.694-11.433,1.025-17.108,1.816
			c-3.058,0.228-6.117,0.446-9.177,0.633c-25.8,1.575-51.662,1.68-77.47,0.283c-5.882-0.318-11.77-0.945-17.653-1.258
			c-3.327-0.345-6.654-0.701-9.977-1.097c-13.504-1.608-26.97-3.646-40.391-6.042c-27.614-4.931-55.026-11.375-82.268-18.664
			c-3.722-0.996-7.618-1.768-11.275-3.066c-0.218-0.077,0.7,0.174,1.977,0.532c-7.421-2.108-14.833-4.265-22.236-6.459
			c-13.583-4.026-27.14-8.177-40.688-12.371c-27.57-8.536-55.101-17.257-82.735-25.495c-57.716-17.206-115.955-33.154-175.147-41.1
			c-112.251-15.069-224.86-5.334-334.488,26.646c-100.211,29.233-197.392,79.808-282.844,148.936
			c-12.577,10.174-24.939,20.744-37.149,31.535c-7.158,6.325-9.3,19.477-5.694,28.736c4.3,11.04,16.892,19.037,25.959,22.287
			c26.293,9.424,55.065,6.257,77.284-13.379c2.325-2.055,4.668-4.081,6.997-6.13c0.282-0.239,0.564-0.478,0.847-0.716
			c5.258-4.417,10.561-8.757,15.907-13.022c10.332-8.244,20.822-16.205,31.459-23.875c21.639-15.604,43.882-30.01,66.624-43.186
			c11.129-6.447,22.363-13.154,33.89-18.536c-0.405,0.189-11.465,5.765-4.336,2.221c1.187-0.59,2.372-1.186,3.559-1.775
			c2.77-1.374,5.546-2.731,8.329-4.07c5.963-2.869,11.953-5.655,17.969-8.361c23.665-10.645,47.728-20.028,72.092-28.118
			c5.782-1.92,11.58-3.767,17.394-5.541c2.492-0.76,4.987-1.507,7.484-2.24c0.803-0.236,1.608-0.467,2.412-0.699
			c11.423-3.026,22.869-5.89,34.381-8.401c24.451-5.334,49.096-9.392,73.845-12.145c2.568-0.286,5.137-0.549,7.707-0.806
			c5.673-0.422,11.345-0.836,17.024-1.142c12.411-0.67,24.834-1.011,37.258-1.015c12.852-0.004,25.704,0.35,38.542,1.066
			c5.055,0.282,10.105,0.644,15.155,1.031c3.192,0.321,6.383,0.66,9.572,1.026c26.804,3.08,53.453,7.853,79.916,13.773
			c13.727,3.071,27.405,6.445,41.041,10.042c3.294,0.869,6.585,1.751,9.873,2.645c1.88,0.511,3.757,1.033,5.637,1.543
			c5.664,1.537-7.227-1.966-6.451-1.8c7.553,1.616,15.054,4.285,22.503,6.475c54.357,15.985,108.276,34.026,162.788,49.269
			c61.713,17.257,123.289,30.447,186.564,35.833c56.104,4.776,112.582,2.271,168.413-5.651
			c109.758-15.575,217.808-56.117,315.136-118.724c11.377-7.318,22.588-14.987,33.66-22.943c7.698-5.531,16.544-14.378,16.544-26.37
			C1847.776,690.526,1839,680.481,1831.232,675.62z M1655.088,734.72C1653.714,735.428,1652.404,736.094,1655.088,734.72
			L1655.088,734.72z"/>
		<path d="M1180.255,774.261c4.019,1.146-1.328-0.384-4.477-1.265c0.085,0.024,0.17,0.049,0.255,0.073
			C1177.44,773.468,1178.848,773.86,1180.255,774.261z"/>
		<path d="M1539.058,780.051c-0.969,0.275-2.372,0.68-4.352,1.257c0.281-0.074,0.563-0.146,0.845-0.221
			C1536.722,780.748,1537.889,780.395,1539.058,780.051z"/>
		<path d="M2002.283,539.482c-10.36-9.908-44.387-43.64-110.094-9.067c-21.905,11.526-157.629,27.847-231.85,33.078
			c-14.205,1.001-32.46,2.693-46.62,3.738c-10.04,0.741-22.349,2.119-32.54,4.859c-9.731,2.616-13.553,15.965-8.167,21.607
			c6.291,6.589,18.45,7.415,25.959,8.729c79.571,13.929,161.686,12.606,241.312-0.141c15.711-2.515,31.366-5.498,46.945-8.961
			c-19.411,73.212-23.693,152.632-21.426,228.547c1.051,35.176,3.725,70.253,7.634,105.136c0.749,6.689,13.427,9.473,16.544,10.328
			c12.701,3.484,26.994,4.428,39.942,4.278c13.24-0.153,27.039-0.462,39.942-4.278c3.533-1.045,17.278-3.779,16.544-10.328
			c-11.764-104.988-13.465-215.199,10.132-318.16C2001.273,588.193,2013.59,553.401,2002.283,539.482z"/>
		<path d="M998.237,866.02c-66.478-32.364-137.562-49.669-209.209-53.284c-71.494-3.607-143.877,6.836-212.408,31.541
			c-38.142,13.75-74.96,31.8-110.079,54.284c-4.314,2.762,1.731,6.404,3.8,7.007c4.766,1.389,10.156,0.94,14.494-1.837
			c58.963-37.75,123.814-62.472,189.983-73.873c66.206-11.408,134.08-10.066,199.806,5.036
			c37.182,8.543,73.566,21.298,108.632,38.369c4.389,2.137,10.613,2.337,14.981,0C1001.875,871.317,1002.191,867.945,998.237,866.02
			z"/>
		<path d="M1080.24,701.66c113.817,46.315,235.275,66.109,355.319,57.492c34.009-2.441,67.859-6.978,101.446-13.831
			c2.906-0.593,9.199-2.516,7.399-7.542c-1.66-4.634-9.799-4.942-13.031-4.282c-114.349,23.335-232.262,19.985-345.481-10.402
			c-32.112-8.619-63.805-19.346-94.958-32.023c-4.019-1.635-11.241-1.595-14.494,2.199
			C1072.966,697.324,1077.057,700.365,1080.24,701.66z"/>
	</g>
</g>
</svg>
